<mxfile host="app.diagrams.net" modified="2023-05-08T17:13:13.012Z" agent="Mozilla/5.0 (Windows NT 10.0; Win64; x64) AppleWebKit/537.36 (KHTML, like Gecko) Chrome/111.0.0.0 Safari/537.36" etag="OiBPtO2xF-ahPle2QsoD" version="21.2.9" type="github">
  <diagram name="第 1 页" id="yR8hJOIgqaXVK5sdTmrM">
    <mxGraphModel dx="1372" dy="804" grid="1" gridSize="10" guides="1" tooltips="1" connect="1" arrows="1" fold="1" page="1" pageScale="1" pageWidth="827" pageHeight="1169" math="0" shadow="0">
      <root>
        <mxCell id="0" />
        <mxCell id="1" parent="0" />
        <mxCell id="07P-vj29-kJeaoqT7m6A-1" value="Actor" style="shape=umlActor;verticalLabelPosition=bottom;verticalAlign=top;html=1;outlineConnect=0;" vertex="1" parent="1">
          <mxGeometry x="130" y="555" width="30" height="60" as="geometry" />
        </mxCell>
        <mxCell id="07P-vj29-kJeaoqT7m6A-3" value="启动盒子" style="ellipse;whiteSpace=wrap;html=1;" vertex="1" parent="1">
          <mxGeometry x="290" y="280" width="120" height="80" as="geometry" />
        </mxCell>
        <mxCell id="07P-vj29-kJeaoqT7m6A-4" value="准备IPTV网络" style="ellipse;whiteSpace=wrap;html=1;" vertex="1" parent="1">
          <mxGeometry x="290" y="370" width="120" height="80" as="geometry" />
        </mxCell>
        <mxCell id="07P-vj29-kJeaoqT7m6A-5" value="登录账号" style="ellipse;whiteSpace=wrap;html=1;" vertex="1" parent="1">
          <mxGeometry x="290" y="460" width="120" height="80" as="geometry" />
        </mxCell>
        <mxCell id="07P-vj29-kJeaoqT7m6A-6" value="向导" style="ellipse;whiteSpace=wrap;html=1;" vertex="1" parent="1">
          <mxGeometry x="290" y="555" width="120" height="80" as="geometry" />
        </mxCell>
        <mxCell id="07P-vj29-kJeaoqT7m6A-7" value="遥控器操作" style="ellipse;whiteSpace=wrap;html=1;" vertex="1" parent="1">
          <mxGeometry x="290" y="650" width="120" height="80" as="geometry" />
        </mxCell>
        <mxCell id="07P-vj29-kJeaoqT7m6A-8" value="接口使用" style="ellipse;whiteSpace=wrap;html=1;" vertex="1" parent="1">
          <mxGeometry x="290" y="750" width="120" height="80" as="geometry" />
        </mxCell>
        <mxCell id="07P-vj29-kJeaoqT7m6A-12" value="" style="endArrow=classic;html=1;rounded=0;entryX=0.025;entryY=0.638;entryDx=0;entryDy=0;entryPerimeter=0;exitX=1;exitY=0.3333333333333333;exitDx=0;exitDy=0;exitPerimeter=0;" edge="1" parent="1" source="07P-vj29-kJeaoqT7m6A-1" target="07P-vj29-kJeaoqT7m6A-3">
          <mxGeometry width="50" height="50" relative="1" as="geometry">
            <mxPoint x="160" y="580" as="sourcePoint" />
            <mxPoint x="210" y="530" as="targetPoint" />
          </mxGeometry>
        </mxCell>
        <mxCell id="07P-vj29-kJeaoqT7m6A-13" value="" style="endArrow=classic;html=1;rounded=0;entryX=0;entryY=0.5;entryDx=0;entryDy=0;exitX=1;exitY=0.3333333333333333;exitDx=0;exitDy=0;exitPerimeter=0;" edge="1" parent="1" source="07P-vj29-kJeaoqT7m6A-1" target="07P-vj29-kJeaoqT7m6A-4">
          <mxGeometry width="50" height="50" relative="1" as="geometry">
            <mxPoint x="160" y="570" as="sourcePoint" />
            <mxPoint x="296" y="341" as="targetPoint" />
          </mxGeometry>
        </mxCell>
        <mxCell id="07P-vj29-kJeaoqT7m6A-14" value="" style="endArrow=classic;html=1;rounded=0;entryX=0;entryY=0.5;entryDx=0;entryDy=0;" edge="1" parent="1" target="07P-vj29-kJeaoqT7m6A-5">
          <mxGeometry width="50" height="50" relative="1" as="geometry">
            <mxPoint x="160" y="570" as="sourcePoint" />
            <mxPoint x="300" y="440" as="targetPoint" />
          </mxGeometry>
        </mxCell>
        <mxCell id="07P-vj29-kJeaoqT7m6A-15" value="" style="endArrow=classic;html=1;rounded=0;exitX=1;exitY=0.3333333333333333;exitDx=0;exitDy=0;exitPerimeter=0;entryX=0.025;entryY=0.363;entryDx=0;entryDy=0;entryPerimeter=0;" edge="1" parent="1" source="07P-vj29-kJeaoqT7m6A-1" target="07P-vj29-kJeaoqT7m6A-6">
          <mxGeometry width="50" height="50" relative="1" as="geometry">
            <mxPoint x="200" y="579" as="sourcePoint" />
            <mxPoint x="270" y="580" as="targetPoint" />
          </mxGeometry>
        </mxCell>
        <mxCell id="07P-vj29-kJeaoqT7m6A-16" value="" style="endArrow=classic;html=1;rounded=0;entryX=0.017;entryY=0.375;entryDx=0;entryDy=0;entryPerimeter=0;" edge="1" parent="1" target="07P-vj29-kJeaoqT7m6A-7">
          <mxGeometry width="50" height="50" relative="1" as="geometry">
            <mxPoint x="160" y="570" as="sourcePoint" />
            <mxPoint x="299" y="634" as="targetPoint" />
          </mxGeometry>
        </mxCell>
        <mxCell id="07P-vj29-kJeaoqT7m6A-17" value="" style="endArrow=classic;html=1;rounded=0;exitX=1;exitY=0.3333333333333333;exitDx=0;exitDy=0;exitPerimeter=0;entryX=0.042;entryY=0.338;entryDx=0;entryDy=0;entryPerimeter=0;" edge="1" parent="1" source="07P-vj29-kJeaoqT7m6A-1" target="07P-vj29-kJeaoqT7m6A-8">
          <mxGeometry width="50" height="50" relative="1" as="geometry">
            <mxPoint x="170" y="580" as="sourcePoint" />
            <mxPoint x="290" y="840" as="targetPoint" />
          </mxGeometry>
        </mxCell>
      </root>
    </mxGraphModel>
  </diagram>
</mxfile>
